<svg width="18" height="21" viewBox="0 0 18 21" fill="none" xmlns="http://www.w3.org/2000/svg">
<g clip-path="url(#clip0_1311_12294)">
<path d="M15.8914 0.00195312H2.10867C0.946336 0.00195312 0 0.966387 0 2.1615V16.3348C0 17.5299 0.946266 18.4943 2.1086 18.4943H13.7726L13.2274 16.5549L14.544 17.8024L15.7885 18.9765L18 20.9683V2.1615C18 0.966387 17.0537 0.00195312 15.8914 0.00195312ZM11.9211 13.6931C11.9211 13.6931 11.5509 13.2422 11.2423 12.8439C12.5897 12.456 13.104 11.5964 13.104 11.5964C12.6823 11.8794 12.2811 12.0787 11.9211 12.2148C11.4069 12.435 10.9131 12.5817 10.4297 12.6656C9.44227 12.8543 8.53713 12.802 7.76573 12.6552C7.1794 12.5398 6.6754 12.3721 6.25373 12.2044C6.01713 12.11 5.76 11.9947 5.5028 11.848C5.472 11.827 5.44113 11.8165 5.41027 11.7955C5.38973 11.7851 5.3794 11.7746 5.36913 11.7641C5.184 11.6593 5.08113 11.5859 5.08113 11.5859C5.08113 11.5859 5.57487 12.4246 6.88113 12.8229C6.5726 13.2213 6.192 13.693 6.192 13.693C3.9188 13.6196 3.05487 12.0996 3.05487 12.0996C3.05487 8.724 4.536 5.98785 4.536 5.98785C6.01713 4.85565 7.42627 4.88711 7.42627 4.88711L7.52913 5.01295C5.67773 5.55795 4.824 6.38622 4.824 6.38622C4.824 6.38622 5.05027 6.26045 5.4308 6.08223C6.5314 5.58948 7.40573 5.45325 7.76573 5.42179C7.8274 5.41125 7.87887 5.40079 7.9406 5.40079C8.62987 5.30927 9.32742 5.30225 10.0183 5.37987C10.9954 5.49517 12.0446 5.7887 13.1143 6.38622C13.1143 6.38622 12.3017 5.60001 10.5531 5.05488L10.6971 4.88719C10.6971 4.88719 12.1063 4.85565 13.5874 5.98792C13.5874 5.98792 15.0686 8.724 15.0686 12.0996C15.0686 12.0996 14.1943 13.6196 11.9211 13.693V13.6931ZM7.13827 8.79738C6.552 8.79738 6.0892 9.32152 6.0892 9.96096C6.0892 10.6005 6.56227 11.1246 7.13827 11.1246C7.7246 11.1246 8.1874 10.6005 8.1874 9.96096C8.19773 9.32152 7.72453 8.79738 7.13827 8.79738ZM10.8926 8.79738C10.3063 8.79738 9.8434 9.32152 9.8434 9.96096C9.8434 10.6005 10.3166 11.1246 10.8926 11.1246C11.4789 11.1246 11.9417 10.6005 11.9417 9.96096C11.9417 9.32152 11.4789 8.79738 10.8926 8.79738Z" fill="white"/>
</g>
<defs>
<clipPath id="clip0_1311_12294">
<rect width="18" height="21" fill="white"/>
</clipPath>
</defs>
</svg>
