<svg width="27" height="27" viewBox="0 0 27 27" fill="none" xmlns="http://www.w3.org/2000/svg">
<path d="M17.7542 3.25599L7.82123 6.55599C1.14423 8.78899 1.14423 12.43 7.82123 14.652L10.7692 15.631L11.7482 18.579C13.9702 25.256 17.6222 25.256 19.8442 18.579L23.1552 8.65699C24.6292 4.20199 22.2092 1.77099 17.7542 3.25599ZM18.1062 9.17399L13.9262 13.376C13.7612 13.541 13.5522 13.618 13.3432 13.618C13.1342 13.618 12.9252 13.541 12.7602 13.376C12.6068 13.2207 12.5208 13.0113 12.5208 12.793C12.5208 12.5747 12.6068 12.3652 12.7602 12.21L16.9402 8.00799C17.2592 7.68899 17.7872 7.68899 18.1062 8.00799C18.4252 8.32699 18.4252 8.85499 18.1062 9.17399Z" fill="white"/>
</svg>
